# Blender v2.81 (sub 16) OBJ File: 'large_1.blend'
# www.blender.org
mtllib large_1.mtl
o Sphere.003_Sphere.009
v 0.716254 0.000000 0.281719
v 0.693707 -0.130906 0.308589
v 0.632109 -0.226736 0.381999
v 0.805799 0.000000 0.436815
v 0.771255 -0.130906 0.442906
v 0.676881 -0.226736 0.459547
v 0.774700 0.000000 0.613185
v 0.744323 -0.130906 0.595647
v 0.661332 -0.226736 0.547732
v 0.637509 0.000000 0.728302
v 0.625512 -0.130906 0.695341
v 0.592736 -0.226736 0.605290
v 0.547964 -0.261812 0.482279
v 0.458419 0.000000 0.728302
v 0.470415 -0.130906 0.695341
v 0.503191 -0.226736 0.605290
v 0.321228 0.000000 0.613185
v 0.351604 -0.130906 0.595647
v 0.434596 -0.226736 0.547732
v 0.290129 0.000000 0.436815
v 0.324672 -0.130906 0.442906
v 0.419046 -0.226736 0.459547
v 0.379674 0.000000 0.281719
v 0.402221 -0.130906 0.308589
v 0.463819 -0.226736 0.381999
v 0.547964 0.000000 0.220466
v 0.547964 -0.130906 0.255542
v 0.547964 -0.226736 0.351372
vt 0.303668 0.339422
vt 0.175831 0.244208
vt 0.408000 0.087320
vt 0.442727 0.244609
vt 0.498789 0.485826
vt 0.145848 0.222849
vt 0.402258 0.049935
vt 0.682531 0.116687
vt 0.607796 0.262401
vt 0.705186 0.082281
vt 0.723845 0.384956
vt 0.920363 0.306372
vt 0.877100 0.319900
vt 0.736509 0.557268
vt 0.946970 0.625312
vt 0.900539 0.608396
vt 0.637591 0.699079
vt 0.764786 0.891246
vt 0.735518 0.848292
vt 0.472639 0.741766
vt 0.456412 0.971915
vt 0.457111 0.920946
vt 0.320906 0.664218
vt 0.173333 0.825580
vt 0.201457 0.789110
vt 0.052881 0.527399
vt 0.092162 0.519919
vt 0.254802 0.504631
vn 0.2492 -0.6848 -0.6848
vn 0.0938 -0.9617 -0.2577
vn 0.3317 -0.2442 -0.9113
vn 0.6311 -0.6848 -0.3644
vn 0.2375 -0.9617 -0.1371
vn 0.8398 -0.2442 -0.4849
vn 0.2700 -0.9617 0.0476
vn 0.9550 -0.2442 0.1684
vn 0.7177 -0.6848 0.1265
vn 0.1763 -0.9617 0.2101
vn 0.6233 -0.2442 0.7429
vn 0.4684 -0.6848 0.5582
vn 0.0000 -0.9617 0.2742
vn 0.0000 -0.2442 0.9697
vn 0.0000 -0.6848 0.7287
vn -0.1763 -0.9617 0.2101
vn -0.6233 -0.2442 0.7429
vn -0.4684 -0.6848 0.5582
vn -0.2700 -0.9617 0.0476
vn -0.9550 -0.2442 0.1684
vn -0.7177 -0.6848 0.1265
vn -0.8398 -0.2442 -0.4849
vn -0.6311 -0.6848 -0.3644
vn -0.2375 -0.9617 -0.1371
vn -0.2492 -0.6848 -0.6848
vn -0.0938 -0.9617 -0.2577
vn -0.3317 -0.2442 -0.9113
usemtl glow
s off
f 28/1/1 27/2/1 2/3/1 3/4/1
f 13/5/2 28/1/2 3/4/2
f 27/2/3 26/6/3 1/7/3 2/3/3
f 3/4/4 2/3/4 5/8/4 6/9/4
f 13/5/5 3/4/5 6/9/5
f 2/3/6 1/7/6 4/10/6 5/8/6
f 13/5/7 6/9/7 9/11/7
f 5/8/8 4/10/8 7/12/8 8/13/8
f 6/9/9 5/8/9 8/13/9 9/11/9
f 13/5/10 9/11/10 12/14/10
f 8/13/11 7/12/11 10/15/11 11/16/11
f 9/11/12 8/13/12 11/16/12 12/14/12
f 13/5/13 12/14/13 16/17/13
f 11/16/14 10/15/14 14/18/14 15/19/14
f 12/14/15 11/16/15 15/19/15 16/17/15
f 13/5/16 16/17/16 19/20/16
f 15/19/17 14/18/17 17/21/17 18/22/17
f 16/17/18 15/19/18 18/22/18 19/20/18
f 13/5/19 19/20/19 22/23/19
f 18/22/20 17/21/20 20/24/20 21/25/20
f 19/20/21 18/22/21 21/25/21 22/23/21
f 21/25/22 20/24/22 23/26/22 24/27/22
f 22/23/23 21/25/23 24/27/23 25/28/23
f 13/5/24 22/23/24 25/28/24
f 25/28/25 24/27/25 27/2/25 28/1/25
f 13/5/26 25/28/26 28/1/26
f 24/27/27 23/26/27 26/6/27 27/2/27
o Cube_Cube.001
v 0.000000 0.000000 1.000000
v 0.000000 0.000000 0.000000
v 1.000000 0.000000 1.000000
v 1.000000 0.000000 0.000000
vt 0.000000 1.000000
vt 1.000000 1.000000
vt 1.000000 0.000000
vt 0.000000 0.000000
vn 0.0000 -1.0000 0.0000
usemtl mushroom_bottom
s off
f 30/29/28 32/30/28 31/31/28 29/32/28
o Cube.001_Cube.000
v 0.000000 0.000000 1.000000
v 0.000000 1.000000 1.000000
v 0.000000 0.000000 0.000000
v 0.000000 1.000000 0.000000
v 1.000000 0.000000 1.000000
v 1.000000 1.000000 1.000000
v 1.000000 0.000000 0.000000
v 1.000000 1.000000 0.000000
vt 0.000000 0.000000
vt 0.000000 1.000000
vt 1.000000 1.000000
vt 1.000000 0.000000
vt 0.000000 0.000000
vt 0.000000 1.000000
vt 1.000000 1.000000
vt 1.000000 0.000000
vt 0.000000 1.000000
vt 0.000000 0.000000
vt 1.000000 0.000000
vt 1.000000 1.000000
vt 0.000000 0.000000
vt 1.000000 0.000000
vn -1.0000 0.0000 0.0000
vn 0.0000 0.0000 -1.0000
vn 1.0000 0.0000 0.0000
vn 0.0000 0.0000 1.0000
vn 0.0000 1.0000 0.0000
usemtl mushroom_top
s off
f 33/33/29 34/34/29 36/35/29 35/36/29
f 35/37/30 36/38/30 40/39/30 39/40/30
f 39/40/31 40/39/31 38/41/31 37/42/31
f 37/43/32 38/44/32 34/34/32 33/33/32
f 40/39/33 36/38/33 34/45/33 38/46/33
